<mxfile host="app.diagrams.net" modified="2023-06-21T09:54:12.318Z" agent="Mozilla/5.0 (Windows NT 10.0; Win64; x64) AppleWebKit/537.36 (KHTML, like Gecko) Chrome/114.0.0.0 Safari/537.36" etag="cr0jVXh7bAEVnYjUztXa" version="21.5.0" type="github">
  <diagram name="第 1 页" id="QOnTSSQmwPnzcd5Xkw5Z">
    <mxGraphModel dx="1418" dy="642" grid="1" gridSize="10" guides="1" tooltips="1" connect="1" arrows="1" fold="1" page="1" pageScale="1" pageWidth="10000" pageHeight="10000" math="0" shadow="0">
      <root>
        <mxCell id="0" />
        <mxCell id="1" parent="0" />
        <mxCell id="YfxHdZobSpgit8-oHWuQ-1" value="Vertical Container" style="swimlane;whiteSpace=wrap;html=1;" vertex="1" parent="1">
          <mxGeometry x="320" y="200" width="200" height="200" as="geometry" />
        </mxCell>
        <mxCell id="YfxHdZobSpgit8-oHWuQ-2" value="Vertical Container" style="swimlane;whiteSpace=wrap;html=1;" vertex="1" parent="1">
          <mxGeometry x="520" y="200" width="200" height="200" as="geometry" />
        </mxCell>
        <mxCell id="YfxHdZobSpgit8-oHWuQ-3" value="Vertical Container" style="swimlane;whiteSpace=wrap;html=1;" vertex="1" parent="1">
          <mxGeometry x="720" y="200" width="200" height="200" as="geometry" />
        </mxCell>
      </root>
    </mxGraphModel>
  </diagram>
</mxfile>
